<?xml version="1.0" encoding="UTF-8" standalone="no"?>
<svg
   xmlns:dc="http://purl.org/dc/elements/1.1/"
   xmlns:cc="http://creativecommons.org/ns#"
   xmlns:rdf="http://www.w3.org/1999/02/22-rdf-syntax-ns#"
   xmlns:svg="http://www.w3.org/2000/svg"
   xmlns="http://www.w3.org/2000/svg"
   width="1024"
   height="1024"
   viewBox="0 0 1024 1024"
   version="1.1"
   xml:space="preserve"
   style="clip-rule:evenodd;fill-rule:evenodd;stroke-linejoin:round;stroke-miterlimit:1.41421"
   id="svg32">
  <metadata
   id="metadata38">
    <rdf:RDF>
      <cc:Work
   rdf:about="">
        <dc:format>image/svg+xml</dc:format>



        <dc:type
   rdf:resource="http://purl.org/dc/dcmitype/StillImage" />



      <dc:title></dc:title>


</cc:Work>



    </rdf:RDF>



  </metadata>



  <defs
   id="defs36">
      
      
      
    
  
  

    


  </defs>



  
  

  <path
   d="M 180 0 C 80.28 0 2.785272e-16 80.28 0 180 L 0 844 C 0 943.72 80.28 1024 180 1024 L 844 1024 C 943.72 1024 1024 943.72 1024 844 L 1024 180 C 1024 80.28 943.72 2.785272e-16 844 0 L 180 0 z M 298.18359 232.13477 C 303.98201 234.06757 311.71292 236.00079 321.37695 237.93359 C 331.04099 239.8664 342.15551 243.25001 354.71875 248.08203 C 362.44998 250.01484 371.14651 251.9461 380.81055 253.87891 C 390.47458 255.81171 400.62152 259.19533 411.25195 264.02734 C 420.91599 270.79217 429.61447 276.10704 437.3457 279.97266 C 444.11052 284.80468 450.39103 288.67111 456.18945 291.57031 C 461.98787 294.46953 465.8543 295.91797 467.78711 295.91797 L 495.33008 307.51562 L 495.33008 304.61523 C 498.22928 305.58163 502.09376 306.54922 506.92578 307.51562 C 512.7242 308.48202 518.03907 309.93047 522.87109 311.86328 C 528.66951 313.79609 534.46916 315.24648 540.26758 316.21289 C 556.69644 326.84333 570.22504 334.57424 580.85547 339.40625 C 592.45232 343.27186 604.53246 346.17071 617.0957 348.10352 C 626.75974 352.93554 636.42386 356.31915 646.08789 358.25195 C 655.75193 360.18476 664.45041 362.11603 672.18164 364.04883 L 676.5293 364.04883 C 678.4621 364.04883 679.9125 364.53359 680.87891 365.5 C 681.84531 366.4664 683.29571 367.43203 685.22852 368.39844 C 689.09413 368.39844 693.92619 369.36407 699.72461 371.29688 C 705.52303 372.26327 706.00584 372.74805 701.17383 372.74805 C 706.00584 374.68085 709.38751 376.1293 711.32031 377.0957 L 721.46875 377.0957 L 733.06445 377.0957 C 737.89647 377.0957 741.7629 378.54611 744.66211 381.44531 C 748.52772 383.37812 752.87696 384.34375 757.70898 384.34375 C 758.67538 387.24296 760.60665 388.69336 763.50586 388.69336 L 764.95703 388.69336 C 769.78905 390.62617 773.65353 393.0422 776.55273 395.94141 C 780.41835 397.87421 783.31719 400.77305 785.25 404.63867 C 789.11561 410.43709 791.53164 414.78633 792.49805 417.68555 C 794.43085 420.58475 795.39844 422.51797 795.39844 423.48438 C 795.39844 424.45078 794.91367 425.41641 793.94727 426.38281 L 793.94727 429.28125 C 793.94727 430.24765 794.43203 431.21523 795.39844 432.18164 C 797.33124 434.11445 798.29688 435.5629 798.29688 436.5293 C 798.29687 452.95816 793.46481 462.62228 783.80078 465.52148 C 774.13675 468.4207 763.98982 469.87109 753.35938 469.87109 L 725.81641 469.87109 C 718.08518 469.87109 703.10618 473.25275 680.87891 480.01758 C 658.65163 486.7824 634.97414 494.03049 609.84766 501.76172 C 580.85555 511.42575 549.44717 522.05746 515.62305 533.6543 C 509.82463 539.45272 502.09372 544.76759 492.42969 549.59961 C 483.73205 553.46522 475.51834 556.36407 467.78711 558.29688 L 463.4375 558.29688 C 463.4375 561.19609 461.98906 562.64648 459.08984 562.64648 C 456.19064 564.57929 452.80702 566.51055 448.94141 568.44336 C 446.04219 569.40976 443.62617 570.86016 441.69336 572.79297 C 438.79415 574.72578 436.37813 576.65899 434.44531 578.5918 C 422.84847 580.5246 410.76832 583.90626 398.20508 588.73828 C 385.64183 593.57029 376.46248 597.91954 370.66406 601.78516 C 364.86564 607.58358 361.9668 609.03202 361.9668 606.13281 L 338.77148 614.83203 C 326.20824 620.63045 312.19683 625.46251 296.73438 629.32812 C 282.23832 633.19374 272.08944 635.125 266.29102 635.125 C 245.99655 635.125 234.88398 629.32731 232.95117 617.73047 C 231.01837 606.13363 230.05273 594.05348 230.05273 581.49023 C 231.01913 580.52383 231.98477 579.07538 232.95117 577.14258 C 233.91757 575.20977 234.8832 574.24219 235.84961 574.24219 C 236.81601 573.27578 237.30078 571.82734 237.30078 569.89453 C 237.30078 564.09611 238.74922 559.74686 241.64844 556.84766 C 245.51405 553.94844 248.4129 551.53242 250.3457 549.59961 C 263.87535 541.86838 278.85434 536.06874 295.2832 532.20312 C 311.71206 528.33751 321.86095 526.40625 325.72656 526.40625 C 332.49139 526.40625 343.60395 523.50545 359.06641 517.70703 C 374.52886 511.90861 390.47544 505.14529 406.9043 497.41406 C 423.33315 488.71643 438.79496 480.50076 453.29102 472.76953 C 467.78707 465.0383 477.934 459.72343 483.73242 456.82422 C 491.46365 454.89141 498.71174 452.9582 505.47656 451.02539 C 511.27499 449.09258 517.07267 447.16132 522.87109 445.22852 C 528.66951 443.29571 533.01876 440.39491 535.91797 436.5293 L 541.7168 436.5293 C 545.58241 436.5293 549.44884 436.04648 553.31445 435.08008 C 557.18007 435.08008 562.01211 434.59727 567.81055 433.63086 C 567.81055 430.73165 562.9785 429.28125 553.31445 429.28125 L 540.26758 429.28125 L 519.97266 424.93359 C 514.17424 420.10158 504.99293 415.26953 492.42969 410.4375 C 480.83285 405.60548 468.7527 401.25624 456.18945 397.39062 C 444.59261 393.52501 433.96286 390.62617 424.29883 388.69336 C 414.63479 385.79415 408.8371 384.34375 406.9043 384.34375 C 397.24026 384.34375 387.57614 380.96209 377.91211 374.19727 C 373.08009 371.29805 367.76522 367.91444 361.9668 364.04883 C 354.23557 358.25041 346.50271 354.38593 338.77148 352.45312 C 331.04026 349.55391 324.27694 348.10352 318.47852 348.10352 L 237.30078 327.80859 L 225.70312 304.61523 L 250.3457 264.02734 C 254.21132 253.39691 259.5262 245.666 266.29102 240.83398 C 273.05584 235.03556 283.68754 232.13477 298.18359 232.13477 z M 748.875 645.75977 C 753.85802 645.79752 759.21901 646.11865 764.95703 646.72266 L 764.95703 653.9707 C 764.95703 657.83632 763.98945 664.60159 762.05664 674.26562 C 762.05664 677.16483 761.09101 682.96252 759.1582 691.66016 C 757.2254 699.39138 754.32655 708.08987 750.46094 717.75391 C 746.59532 726.45154 741.27849 735.14808 734.51367 743.8457 C 727.74885 752.54334 719.53513 759.3086 709.87109 764.14062 C 701.17346 762.20781 688.61049 761.725 672.18164 762.69141 C 655.75278 762.69141 638.35776 761.72382 619.99609 759.79102 C 615.16408 758.82461 607.91599 758.3418 598.25195 758.3418 C 589.55432 758.3418 580.37302 758.82461 570.70898 759.79102 C 561.04494 760.75742 551.86364 762.20781 543.16602 764.14062 C 534.46838 766.07343 528.18788 768.48947 524.32227 771.38867 C 513.69183 776.22069 499.19565 777.67109 480.83398 775.73828 C 462.47232 773.80547 443.14408 773.80547 422.84961 775.73828 C 419.9504 775.73828 415.11834 776.70391 408.35352 778.63672 C 401.5887 779.60312 393.85779 781.05352 385.16016 782.98633 C 377.42893 783.95273 369.69802 784.91837 361.9668 785.88477 C 354.23557 785.88477 347.95311 784.91913 343.12109 782.98633 C 332.49066 789.75115 318.96011 792.65 302.53125 791.68359 C 287.0688 790.71719 268.22533 787.81835 245.99805 782.98633 L 230.05273 780.08594 C 231.01913 778.15313 231.98477 774.28865 232.95117 768.49023 C 233.91757 762.69181 235.36797 756.40936 237.30078 749.64453 C 239.23359 742.87971 241.64961 736.11444 244.54883 729.34961 C 248.41444 722.58479 252.76174 717.75273 257.59375 714.85352 C 288.51866 707.12229 319.92705 699.39138 351.81836 691.66016 C 384.67608 682.96252 415.11883 678.61328 443.14453 678.61328 C 453.77496 672.81486 467.30356 671.36641 483.73242 674.26562 C 500.16128 676.19843 517.55631 675.23085 535.91797 671.36523 L 617.0957 667.01758 C 626.75974 667.01758 637.39144 664.60154 648.98828 659.76953 C 661.55153 653.97111 675.08012 654.93674 689.57617 662.66797 C 700.20661 656.86955 710.83831 652.52031 721.46875 649.62109 C 728.77718 646.96348 737.91236 645.67672 748.875 645.75977 z "
   style="opacity:1;fill:#000000;stroke-width:0.144;stop-opacity:1;fill-opacity:1"
   id="rect10" />



</svg>
